<svg
    width="0"
    height="0"
    class="hidden"
>

    <symbol
        id="telegram"
        viewBox="0 0 24 24"
        fill="none"
        xmlns="http://www.w3.org/2000/svg"
    >
        <path
            d="M24 12C24 18.6274 18.6274 24 12 24C5.37258 24 0 18.6274 0 12C0 5.37258 5.37258 0 12 0C18.6274 0 24 5.37258 24 12ZM12.4301 8.85898C11.2629 9.34445 8.9302 10.3492 5.43195 11.8734C4.86389 12.0993 4.56632 12.3203 4.53923 12.5363C4.49345 12.9015 4.95077 13.0453 5.57354 13.2412C5.65825 13.2678 5.74602 13.2954 5.836 13.3247C6.4487 13.5238 7.27289 13.7568 7.70135 13.7661C8.09 13.7745 8.52379 13.6142 9.0027 13.2854C12.2712 11.0791 13.9584 9.96386 14.0644 9.93982C14.1391 9.92286 14.2427 9.90153 14.3128 9.9639C14.383 10.0263 14.3761 10.1444 14.3687 10.1761C14.3234 10.3692 12.5282 12.0381 11.5992 12.9018C11.3096 13.1711 11.1041 13.3621 11.0621 13.4057C10.9681 13.5034 10.8722 13.5958 10.78 13.6846C10.2108 14.2334 9.78397 14.6449 10.8037 15.3168C11.2937 15.6397 11.6858 15.9068 12.077 16.1732C12.5042 16.4641 12.9303 16.7543 13.4817 17.1157C13.6221 17.2078 13.7563 17.3034 13.8869 17.3966C14.3841 17.751 14.8308 18.0694 15.3826 18.0187C15.7033 17.9892 16.0345 17.6876 16.2027 16.7884C16.6003 14.6632 17.3817 10.0585 17.5623 8.16103C17.5781 7.99479 17.5582 7.78203 17.5422 7.68863C17.5262 7.59524 17.4928 7.46217 17.3714 7.36366C17.2277 7.247 17.0057 7.2224 16.9064 7.22414C16.4551 7.2321 15.7626 7.47288 12.4301 8.85898Z"
            fill="currentColor"
        ></path>
    </symbol>

    <symbol
        id="youtube"
        viewBox="0 0 25 24"
        fill="none"
        xmlns="http://www.w3.org/2000/svg"
    >
        <path
            d="M13.0767 2.99805C13.0853 2.99806 13.0945 2.99809 13.1043 2.99811L13.2105 2.99844C14.4432 3.00297 20.6909 3.04826 22.3754 3.50112C23.408 3.77809 24.2212 4.59432 24.4972 5.63042C24.6491 6.19966 24.755 6.95626 24.8288 7.73439L24.8431 7.89026C24.8547 8.0203 24.8655 8.15064 24.8754 8.2805L24.8869 8.43605C24.9855 9.80721 24.997 11.0903 24.9984 11.371L24.9985 11.4089C24.9985 11.412 24.9985 11.4171 24.9985 11.4171V11.4383C24.9985 11.4383 24.9985 11.4434 24.9985 11.4465L24.9984 11.4844C24.997 11.7757 24.9846 13.1466 24.8754 14.575L24.8631 14.731L24.85 14.8872C24.7757 15.7461 24.6643 16.5989 24.4972 17.225C24.2212 18.2611 23.408 19.0775 22.3754 19.3543C20.6347 19.8224 14.0216 19.8552 13.1043 19.8575L13.0337 19.8577C13.0279 19.8577 13.0228 19.8577 13.0184 19.8577L12.9896 19.8577C12.9896 19.8577 12.983 19.8577 12.9786 19.8577L12.8927 19.8575C12.4291 19.8564 10.5108 19.8474 8.50194 19.7784L8.2451 19.7693C8.20225 19.7677 8.15938 19.7661 8.11651 19.7645L7.85937 19.7543L7.60282 19.7434C5.93856 19.6704 4.35178 19.5506 3.62184 19.3543C2.5892 19.0775 1.77606 18.2611 1.50007 17.225C1.33287 16.5989 1.2214 15.7461 1.14709 14.8872L1.13399 14.731L1.12167 14.575C1.01636 13.1985 1.00107 11.8755 0.998847 11.5204L0.998582 11.4696C0.998564 11.465 0.998548 11.4608 0.998535 11.4569V11.3985C0.998548 11.3946 0.998564 11.3904 0.998582 11.3859L0.998847 11.335C1.00086 11.0134 1.01359 9.898 1.09421 8.66787L1.10464 8.51356C1.10644 8.48776 1.10827 8.46192 1.11013 8.43605L1.12167 8.2805C1.13161 8.15064 1.14235 8.0203 1.15395 7.89026L1.16829 7.73439C1.24213 6.95626 1.34807 6.19966 1.50007 5.63042C1.77606 4.59432 2.5892 3.77809 3.62184 3.50112C4.35178 3.30488 5.93856 3.18517 7.60282 3.11215L7.85937 3.10128L8.11651 3.09112C8.15938 3.08949 8.20225 3.08788 8.2451 3.0863L8.50194 3.07717C10.3826 3.01261 12.1839 3.00066 12.7865 2.99844L12.8927 2.99811C12.9026 2.99809 12.9118 2.99806 12.9203 2.99805H13.0767ZM10.5986 7.81484V15.0406L16.8337 11.4279L10.5986 7.81484Z"
            fill="currentColor"
        ></path>
    </symbol>

</svg>
